0
SECTION
2
HEADER
9
$INSUNITS
70
4
9
$ACADVER
1
AC1014
9
$HANDSEED
5
FFFF
0
ENDSEC
0
SECTION
2
TABLES
0
TABLE
2
VPORT
5
8
100
AcDbSymbolTable
0
ENDTAB
0
TABLE
2
LTYPE
5
5
100
AcDbSymbolTable
0
LTYPE
5
14
100
AcDbSymbolTableRecord
100
AcDbLinetypeTableRecord
2
BYBLOCK
70
0
0
LTYPE
5
15
100
AcDbSymbolTableRecord
100
AcDbLinetypeTableRecord
2
BYLAYER
70
0
0
ENDTAB
0
TABLE
2
LAYER
5
2
100
AcDbSymbolTable
70
2
0
LAYER
5
50
100
AcDbSymbolTableRecord
100
AcDbLayerTableRecord
2
0
70
0
6
CONTINUOUS
0
ENDTAB
0
TABLE
2
STYLE
5
3
100
AcDbSymbolTable
70
1
0
STYLE
5
11
100
AcDbSymbolTableRecord
100
AcDbTextStyleTableRecord
2
STANDARD
70
0
0
ENDTAB
0
TABLE
2
VIEW
5
6
100
AcDbSymbolTable
70
0
0
ENDTAB
0
TABLE
2
UCS
5
7
100
AcDbSymbolTable
70
0
0
ENDTAB
0
TABLE
2
APPID
5
9
100
AcDbSymbolTable
70
2
0
APPID
5
12
100
AcDbSymbolTableRecord
100
AcDbRegAppTableRecord
2
ACAD
70
0
0
ENDTAB
0
TABLE
2
DIMSTYLE
5
A
100
AcDbSymbolTable
70
1
0
ENDTAB
0
TABLE
2
BLOCK_RECORD
5
1
100
AcDbSymbolTable
70
1
0
BLOCK_RECORD
5
1F
100
AcDbSymbolTableRecord
100
AcDbBlockTableRecord
2
*MODEL_SPACE
0
BLOCK_RECORD
5
1B
100
AcDbSymbolTableRecord
100
AcDbBlockTableRecord
2
*PAPER_SPACE
0
ENDTAB
0
ENDSEC
0
SECTION
2
BLOCKS
0
BLOCK
5
20
100
AcDbEntity
100
AcDbBlockBegin
2
*MODEL_SPACE
0
ENDBLK
5
21
100
AcDbEntity
100
AcDbBlockEnd
0
BLOCK
5
1C
100
AcDbEntity
100
AcDbBlockBegin
2
*PAPER_SPACE
0
ENDBLK
5
1D
100
AcDbEntity
100
AcDbBlockEnd
0
ENDSEC
0
SECTION
2
ENTITIES
0
ARC
5
100
100
AcDbEntity
8
0
100
AcDbCircle
10
12.550000000000001
20
-12.550000000000001
30
0
40
0.50000100000000092
210
0
220
0
230
1
100
AcDbArc
50
90.00009999999979
51
180
0
ARC
5
101
100
AcDbEntity
8
0
100
AcDbCircle
10
44.600000000000001
20
6.5
30
0
40
0.49999999999999822
210
0
220
0
230
1
100
AcDbArc
50
0
51
90
0
LINE
5
102
100
AcDbEntity
8
0
100
AcDbLine
10
12.550000000000001
20
-26.050000000000004
30
0
11
25.550000000000001
21
-26.050000000000004
31
0
0
LINE
5
103
100
AcDbEntity
8
0
100
AcDbLine
10
7.0000000000000009
20
6.5
30
0
11
7.0000000000000009
21
-6.5
31
0
0
LINE
5
104
100
AcDbEntity
8
0
100
AcDbLine
10
31.100000000000001
20
-12.550000000000001
30
0
11
31.100000000000001
21
-25.550000000000001
31
0
0
CIRCLE
5
105
100
AcDbEntity
8
0
100
AcDbCircle
10
-14.424900000000001
20
-33.474500000000006
30
0
40
1.6000000000000003
210
0
220
0
230
1
0
LINE
5
106
100
AcDbEntity
8
0
100
AcDbLine
10
45.099999999999994
20
6.5
30
0
11
45.100000000000009
21
-6.5
31
0
0
ARC
5
107
100
AcDbEntity
8
0
100
AcDbCircle
10
-14.424900000000001
20
-33.474500000000006
30
0
40
5
210
0
220
0
230
1
100
AcDbArc
50
180
51
270
0
CIRCLE
5
108
100
AcDbEntity
8
0
100
AcDbCircle
10
71.575000000000003
20
-33.474500000000006
30
0
40
1.6000000000000003
210
0
220
0
230
1
0
LINE
5
109
100
AcDbEntity
8
0
100
AcDbLine
10
31.600000000000001
20
-26.050000000000004
30
0
11
44.600000000000001
21
-26.050000000000004
31
0
0
ARC
5
110
100
AcDbEntity
8
0
100
AcDbCircle
10
31.600000000000001
20
-25.550000000000001
30
0
40
0.50000100000000103
210
0
220
0
230
1
100
AcDbArc
50
180
51
269.9999000000002
0
ARC
5
111
100
AcDbEntity
8
0
100
AcDbCircle
10
-14.424900000000001
20
39.524999999999999
30
0
40
5.0000000000000044
210
0
220
-0
230
1
100
AcDbArc
50
90
51
180
0
LINE
5
112
100
AcDbEntity
8
0
100
AcDbLine
10
50.650000000000006
20
-7.0000000000000009
30
0
11
63.650000000000006
21
-7.0000000000000009
31
0
0
ARC
5
113
100
AcDbEntity
8
0
100
AcDbCircle
10
44.600000000000001
20
-6.5
30
0
40
0.50000000000000044
210
0
220
0
230
1
100
AcDbArc
50
-90
51
0
0
LINE
5
114
100
AcDbEntity
8
0
100
AcDbLine
10
50.650000000000006
20
-12.050000000000001
30
0
11
63.650000000000006
21
-12.050000000000001
31
0
0
ARC
5
115
100
AcDbEntity
8
0
100
AcDbCircle
10
71.575000000000003
20
39.524999999999999
30
0
40
5
210
0
220
0
230
1
100
AcDbArc
50
0
51
90
0
LINE
5
116
100
AcDbEntity
8
0
100
AcDbLine
10
50.650000000000006
20
30.812500000000004
30
0
11
63.650000000000006
21
30.812500000000004
31
0
0
LINE
5
117
100
AcDbEntity
8
0
100
AcDbLine
10
45.100000000000009
20
-12.550000000000001
30
0
11
45.100000000000009
21
-25.550000000000001
31
0
0
CIRCLE
5
118
100
AcDbEntity
8
0
100
AcDbCircle
10
71.575000000000003
20
39.524999999999999
30
0
40
1.6000000000000003
210
0
220
0
230
1
0
LINE
5
119
100
AcDbEntity
8
0
100
AcDbLine
10
-19.425000000000001
20
39.524999999999999
30
0
11
-19.425000000000001
21
-33.474500000000006
31
0
0
ARC
5
120
100
AcDbEntity
8
0
100
AcDbCircle
10
31.600000000000001
20
6.5
30
0
40
0.50000099999999981
210
0
220
0
230
1
100
AcDbArc
50
90.00009999999979
51
180
0
LINE
5
121
100
AcDbEntity
8
0
100
AcDbLine
10
64.150000000000006
20
6.5
30
0
11
64.150000000000006
21
-6.5
31
0
0
LINE
5
122
100
AcDbEntity
8
0
100
AcDbLine
10
12.050000000000001
20
-12.550000000000001
30
0
11
12.050000000000001
21
-25.550000000000001
31
0
0
ARC
5
123
100
AcDbEntity
8
0
100
AcDbCircle
10
31.600000000000001
20
-6.5
30
0
40
0.50000100000000103
210
0
220
0
230
1
100
AcDbArc
50
180
51
269.9999000000002
0
LINE
5
124
100
AcDbEntity
8
0
100
AcDbLine
10
31.600000000000001
20
7.0000000000000009
30
0
11
44.600000000000001
21
7.0000000000000009
31
0
0
LINE
5
125
100
AcDbEntity
8
0
100
AcDbLine
10
-14.425000000000001
20
-38.474500000000006
30
0
11
71.575000000000017
21
-38.474500000000006
31
0
0
CIRCLE
5
126
100
AcDbEntity
8
0
100
AcDbCircle
10
-14.424900000000001
20
39.524999999999999
30
0
40
1.6000000000000003
210
0
220
0
230
1
0
LINE
5
127
100
AcDbEntity
8
0
100
AcDbLine
10
50.150000000000006
20
6.5
30
0
11
50.150000000000006
21
-6.5
31
0
0
LINE
5
128
100
AcDbEntity
8
0
100
AcDbLine
10
50.650000000000006
20
7.0000000000000009
30
0
11
63.650000000000006
21
7.0000000000000009
31
0
0
ARC
5
129
100
AcDbEntity
8
0
100
AcDbCircle
10
50.650000000000006
20
-6.5
30
0
40
0.50000100000000103
210
0
220
0
230
1
100
AcDbArc
50
180
51
269.9998999999994
0
ARC
5
130
100
AcDbEntity
8
0
100
AcDbCircle
10
63.650000000000006
20
-6.5
30
0
40
0.50000000000000044
210
0
220
0
230
1
100
AcDbArc
50
-90
51
0
0
LINE
5
131
100
AcDbEntity
8
0
100
AcDbLine
10
31.600000000000001
20
-12.050000000000001
30
0
11
44.600000000000001
21
-12.050000000000001
31
0
0
ARC
5
132
100
AcDbEntity
8
0
100
AcDbCircle
10
44.600000000000001
20
-25.550000000000001
30
0
40
0.49999999999999822
210
0
220
0
230
1
100
AcDbArc
50
-90
51
0
0
LINE
5
133
100
AcDbEntity
8
0
100
AcDbLine
10
12.550000000000001
20
-12.050000000000001
30
0
11
25.550000000000001
21
-12.050000000000001
31
0
0
ARC
5
134
100
AcDbEntity
8
0
100
AcDbCircle
10
44.600000000000001
20
-12.550000000000001
30
0
40
0.49999999999999822
210
0
220
0
230
1
100
AcDbArc
50
0
51
90
0
ARC
5
135
100
AcDbEntity
8
0
100
AcDbCircle
10
12.550000000000001
20
-25.550000000000001
30
0
40
0.50000100000000103
210
0
220
0
230
1
100
AcDbArc
50
180
51
269.9999000000002
0
ARC
5
136
100
AcDbEntity
8
0
100
AcDbCircle
10
31.600000000000001
20
-12.550000000000001
30
0
40
0.50000100000000092
210
0
220
0
230
1
100
AcDbArc
50
90.00009999999979
51
180
0
ARC
5
137
100
AcDbEntity
8
0
100
AcDbCircle
10
71.575000000000003
20
-33.474500000000006
30
0
40
5
210
0
220
0
230
1
100
AcDbArc
50
-89.999999999999844
51
0
0
LINE
5
138
100
AcDbEntity
8
0
100
AcDbLine
10
71.575000000000003
20
44.525000000000006
30
0
11
-14.425000000000008
21
44.524999999999999
31
0
0
LINE
5
139
100
AcDbEntity
8
0
100
AcDbLine
10
76.575000000000003
20
-33.474500000000006
30
0
11
76.575000000000003
21
39.524999999999999
31
0
0
LINE
5
140
100
AcDbEntity
8
0
100
AcDbLine
10
31.100000000000001
20
6.5
30
0
11
31.100000000000001
21
-6.5
31
0
0
LINE
5
141
100
AcDbEntity
8
0
100
AcDbLine
10
31.600000000000001
20
-7.0000000000000009
30
0
11
44.600000000000001
21
-7.0000000000000009
31
0
0
ARC
5
142
100
AcDbEntity
8
0
100
AcDbCircle
10
63.650000000000006
20
6.5
30
0
40
0.49999999999999822
210
0
220
0
230
1
100
AcDbArc
50
0
51
90
0
LINE
5
143
100
AcDbEntity
8
0
100
AcDbLine
10
26.050000000000004
20
-12.550000000000001
30
0
11
26.050000000000004
21
-25.550000000000001
31
0
0
ARC
5
144
100
AcDbEntity
8
0
100
AcDbCircle
10
50.650000000000006
20
6.5
30
0
40
0.50000099999999981
210
0
220
0
230
1
100
AcDbArc
50
90.0001000000006
51
180
0
ARC
5
145
100
AcDbEntity
8
0
100
AcDbCircle
10
50.650000000000006
20
-25.550000000000001
30
0
40
0.50000100000000103
210
0
220
0
230
1
100
AcDbArc
50
180
51
269.9998999999994
0
ARC
5
146
100
AcDbEntity
8
0
100
AcDbCircle
10
12.550000000000001
20
6.5
30
0
40
0.50000099999999981
210
0
220
0
230
1
100
AcDbArc
50
90.00009999999979
51
180
0
LINE
5
147
100
AcDbEntity
8
0
100
AcDbLine
10
64.150000000000006
20
30.3125
30
0
11
64.150000000000006
21
17.3125
31
0
0
LINE
5
148
100
AcDbEntity
8
0
100
AcDbLine
10
-6.5
20
16.8125
30
0
11
6.5
21
16.8125
31
0
0
LINE
5
149
100
AcDbEntity
8
0
100
AcDbLine
10
7.0000000000000009
20
30.3125
30
0
11
7.0000000000000009
21
17.3125
31
0
0
ARC
5
150
100
AcDbEntity
8
0
100
AcDbCircle
10
50.650000000000006
20
17.3125
30
0
40
0.50000100000000103
210
0
220
0
230
1
100
AcDbArc
50
180
51
269.9998999999994
0
ARC
5
151
100
AcDbEntity
8
0
100
AcDbCircle
10
-6.5
20
6.5
30
0
40
0.50000099999999981
210
0
220
0
230
1
100
AcDbArc
50
90.000099999999989
51
180
0
ARC
5
152
100
AcDbEntity
8
0
100
AcDbCircle
10
-6.5
20
-6.5
30
0
40
0.50000099999999992
210
0
220
0
230
1
100
AcDbArc
50
180
51
269.99990000000003
0
ARC
5
153
100
AcDbEntity
8
0
100
AcDbCircle
10
25.550000000000001
20
6.5
30
0
40
0.49999999999999822
210
0
220
0
230
1
100
AcDbArc
50
0
51
90
0
LINE
5
154
100
AcDbEntity
8
0
100
AcDbLine
10
-6.5
20
30.812500000000004
30
0
11
6.5
21
30.812500000000004
31
0
0
ARC
5
155
100
AcDbEntity
8
0
100
AcDbCircle
10
63.650000000000006
20
-25.550000000000001
30
0
40
0.49999999999999822
210
0
220
0
230
1
100
AcDbArc
50
-90
51
0
0
LINE
5
156
100
AcDbEntity
8
0
100
AcDbLine
10
12.550000000000001
20
-7.0000000000000009
30
0
11
25.550000000000001
21
-7.0000000000000009
31
0
0
ARC
5
157
100
AcDbEntity
8
0
100
AcDbCircle
10
50.650000000000006
20
30.3125
30
0
40
0.5000009999999987
210
0
220
0
230
1
100
AcDbArc
50
90.0001000000006
51
180
0
LINE
5
158
100
AcDbEntity
8
0
100
AcDbLine
10
-7.0000000000000009
20
6.5
30
0
11
-7.0000000000000009
21
-6.5
31
0
0
ARC
5
159
100
AcDbEntity
8
0
100
AcDbCircle
10
6.5
20
17.3125
30
0
40
0.50000000000000044
210
0
220
0
230
1
100
AcDbArc
50
-90
51
0
0
LINE
5
160
100
AcDbEntity
8
0
100
AcDbLine
10
7.0000000000000009
20
-12.550000000000001
30
0
11
7.0000000000000009
21
-25.550000000000001
31
0
0
ARC
5
161
100
AcDbEntity
8
0
100
AcDbCircle
10
12.550000000000001
20
-6.5
30
0
40
0.50000100000000103
210
0
220
0
230
1
100
AcDbArc
50
180
51
269.9999000000002
0
ARC
5
162
100
AcDbEntity
8
0
100
AcDbCircle
10
25.550000000000001
20
-25.550000000000001
30
0
40
0.49999999999999822
210
0
220
0
230
1
100
AcDbArc
50
-90
51
0
0
LINE
5
163
100
AcDbEntity
8
0
100
AcDbLine
10
50.150000000000006
20
-12.550000000000001
30
0
11
50.150000000000006
21
-25.550000000000001
31
0
0
ARC
5
164
100
AcDbEntity
8
0
100
AcDbCircle
10
63.650000000000006
20
-12.550000000000001
30
0
40
0.49999999999999822
210
0
220
0
230
1
100
AcDbArc
50
0
51
90
0
LINE
5
165
100
AcDbEntity
8
0
100
AcDbLine
10
12.550000000000001
20
7.0000000000000009
30
0
11
25.550000000000001
21
7.0000000000000009
31
0
0
ARC
5
166
100
AcDbEntity
8
0
100
AcDbCircle
10
6.5
20
-25.550000000000001
30
0
40
0.49999999999999822
210
0
220
0
230
1
100
AcDbArc
50
-90
51
0
0
ARC
5
167
100
AcDbEntity
8
0
100
AcDbCircle
10
-6.5
20
-12.550000000000001
30
0
40
0.50000100000000092
210
0
220
0
230
1
100
AcDbArc
50
90.000099999999989
51
180
0
ARC
5
168
100
AcDbEntity
8
0
100
AcDbCircle
10
6.5
20
6.5
30
0
40
0.50000000000000044
210
0
220
0
230
1
100
AcDbArc
50
0
51
90
0
LINE
5
169
100
AcDbEntity
8
0
100
AcDbLine
10
64.150000000000006
20
-12.550000000000001
30
0
11
64.150000000000006
21
-25.550000000000001
31
0
0
LINE
5
170
100
AcDbEntity
8
0
100
AcDbLine
10
-6.5
20
-7.0000000000000009
30
0
11
6.5
21
-7.0000000000000009
31
0
0
LINE
5
171
100
AcDbEntity
8
0
100
AcDbLine
10
50.650000000000006
20
16.8125
30
0
11
63.650000000000006
21
16.8125
31
0
0
LINE
5
172
100
AcDbEntity
8
0
100
AcDbLine
10
12.050000000000001
20
6.5
30
0
11
12.050000000000001
21
-6.5
31
0
0
LINE
5
173
100
AcDbEntity
8
0
100
AcDbLine
10
50.150000000000006
20
30.3125
30
0
11
50.150000000000006
21
17.3125
31
0
0
LINE
5
174
100
AcDbEntity
8
0
100
AcDbLine
10
-7.0000000000000009
20
-12.550000000000001
30
0
11
-7.0000000000000009
21
-25.550000000000001
31
0
0
ARC
5
175
100
AcDbEntity
8
0
100
AcDbCircle
10
6.5
20
-12.550000000000001
30
0
40
0.50000000000000044
210
0
220
0
230
1
100
AcDbArc
50
0
51
90
0
ARC
5
176
100
AcDbEntity
8
0
100
AcDbCircle
10
-6.5
20
17.3125
30
0
40
0.50000099999999992
210
0
220
0
230
1
100
AcDbArc
50
180
51
269.99990000000003
0
ARC
5
177
100
AcDbEntity
8
0
100
AcDbCircle
10
25.550000000000001
20
-6.5
30
0
40
0.50000000000000044
210
0
220
0
230
1
100
AcDbArc
50
-90
51
0
0
ARC
5
178
100
AcDbEntity
8
0
100
AcDbCircle
10
-6.5
20
-25.550000000000001
30
0
40
0.50000099999999992
210
0
220
0
230
1
100
AcDbArc
50
180
51
269.99990000000003
0
ARC
5
179
100
AcDbEntity
8
0
100
AcDbCircle
10
6.5
20
-6.5
30
0
40
0.50000000000000044
210
0
220
0
230
1
100
AcDbArc
50
-90
51
0
0
LINE
5
180
100
AcDbEntity
8
0
100
AcDbLine
10
-6.5
20
7.0000000000000009
30
0
11
6.5
21
7.0000000000000009
31
0
0
ARC
5
181
100
AcDbEntity
8
0
100
AcDbCircle
10
63.650000000000006
20
17.3125
30
0
40
0.50000000000000044
210
0
220
0
230
1
100
AcDbArc
50
-90
51
0
0
ARC
5
182
100
AcDbEntity
8
0
100
AcDbCircle
10
-6.5
20
30.3125
30
0
40
0.5000009999999987
210
0
220
0
230
1
100
AcDbArc
50
90.000099999999989
51
180
0
ARC
5
183
100
AcDbEntity
8
0
100
AcDbCircle
10
63.650000000000006
20
30.3125
30
0
40
0.49999999999999822
210
0
220
0
230
1
100
AcDbArc
50
0
51
90
0
ARC
5
184
100
AcDbEntity
8
0
100
AcDbCircle
10
25.550000000000001
20
-12.550000000000001
30
0
40
0.49999999999999822
210
0
220
0
230
1
100
AcDbArc
50
0
51
90
0
LINE
5
185
100
AcDbEntity
8
0
100
AcDbLine
10
-7.0000000000000009
20
30.3125
30
0
11
-7.0000000000000009
21
17.3125
31
0
0
LINE
5
186
100
AcDbEntity
8
0
100
AcDbLine
10
50.650000000000006
20
-26.050000000000004
30
0
11
63.650000000000006
21
-26.050000000000001
31
0
0
ARC
5
187
100
AcDbEntity
8
0
100
AcDbCircle
10
50.650000000000006
20
-12.550000000000001
30
0
40
0.50000100000000092
210
0
220
0
230
1
100
AcDbArc
50
90.0001000000006
51
180
0
ARC
5
188
100
AcDbEntity
8
0
100
AcDbCircle
10
6.5
20
30.3125
30
0
40
0.50000000000000044
210
0
220
0
230
1
100
AcDbArc
50
0
51
90
0
LINE
5
189
100
AcDbEntity
8
0
100
AcDbLine
10
-6.5
20
-12.050000000000001
30
0
11
6.5
21
-12.050000000000001
31
0
0
LINE
5
190
100
AcDbEntity
8
0
100
AcDbLine
10
-6.5
20
-26.050000000000004
30
0
11
6.5
21
-26.050000000000001
31
0
0
LINE
5
191
100
AcDbEntity
8
0
100
AcDbLine
10
26.050000000000001
20
6.5
30
0
11
26.050000000000001
21
-6.5
31
0
0
ENDSEC
0
SECTION
2
OBJECTS
0
DICTIONARY
5
C
100
AcDbDictionary
3
ACAD_GROUP
350
D
3
ACAD_MLINESTYLE
350
17
0
DICTIONARY
5
D
100
AcDbDictionary
0
DICTIONARY
5
1A
330
C
100
AcDbDictionary
0
DICTIONARY
5
17
100
AcDbDictionary
0
ENDSEC
0
EOF
